<?xml version="1.0" encoding="UTF-8" standalone="no"?>
<!DOCTYPE svg PUBLIC "-//W3C//DTD SVG 1.1//EN" "http://www.w3.org/Graphics/SVG/1.1/DTD/svg11.dtd">
<svg width="100%" height="100%" viewBox="0 0 995 530" version="1.1" xmlns="http://www.w3.org/2000/svg" xmlns:xlink="http://www.w3.org/1999/xlink" xml:space="preserve" xmlns:serif="http://www.serif.com/" style="fill-rule:evenodd;clip-rule:evenodd;stroke-linejoin:round;stroke-miterlimit:1.41421;">
    <g id="Layer-2" serif:id="Layer 2" transform="matrix(1,0,0,1,-94.6714,-190.781)">
        <g transform="matrix(1,0,0,1,505.82,239.753)">
            <path d="M0,170.487C3.312,167.419 6.78,164.438 10.379,161.533C59.583,107.178 127.172,59.472 179.639,26.745C148.656,-17.755 123.976,-47.274 123.976,-47.274C123.976,-47.274 8.762,87.317 -36.35,217.761C-27.217,200.527 -15.119,184.492 0,170.487" style="fill:rgb(0,156,211);fill-rule:nonzero;"/>
        </g>
        <g transform="matrix(1,0,0,1,781.333,242.658)">
            <path d="M0,72.917C-10.658,23.113 -21.167,-11.231 -21.167,-11.231C-21.167,-11.231 -54.306,5.329 -98.691,33.015C-87.971,48.412 -76.472,65.672 -65.004,84.148C-42.19,79.446 -20.132,75.773 0,72.917" style="fill:rgb(0,156,211);fill-rule:nonzero;"/>
        </g>
        <g transform="matrix(1,0,0,1,516.199,266.499)">
            <path d="M0,134.788C51.632,93.121 131.573,68.064 204.233,53.086C192.327,33.905 180.389,15.985 169.26,0C116.793,32.726 49.204,80.433 0,134.788" style="fill:rgb(27,112,155);fill-rule:nonzero;"/>
        </g>
        <g transform="matrix(1,0,0,1,807.934,347.07)">
            <path d="M0,203.485C-0.05,220.535 -2.531,237.004 -7.053,252.607C58.114,131.74 81.245,-49.122 81.245,-49.122C81.245,-49.122 38.472,-47.441 -20.014,-39.144C-5.475,28.79 9.317,124.436 0,203.485" style="fill:rgb(0,156,211);fill-rule:nonzero;"/>
        </g>
        <g transform="matrix(1,0,0,1,469.47,545.599)">
            <path d="M0,-88.084C-14.497,-60.727 -21.41,-30.318 -20.627,0C-20.141,-20.025 -16.243,-40.267 -8.612,-59.942C-6.155,-69.268 -3.257,-78.664 0,-88.084" style="fill:rgb(17,63,91);fill-rule:nonzero;"/>
        </g>
        <g transform="matrix(1,0,0,1,793.885,550.554)">
            <path d="M0,61.563C2.383,57.494 4.718,53.349 6.996,49.123C11.518,33.519 13.999,17.05 14.049,0C11.438,22.153 6.937,43 0,61.563" style="fill:rgb(17,63,91);fill-rule:nonzero;"/>
        </g>
        <g transform="matrix(1,0,0,1,462.8,406.232)">
            <path d="M0,74.479C11.545,47.121 30.485,20.369 53.399,-4.945C49.8,-2.041 46.332,0.94 43.02,4.008C27.901,18.014 15.803,34.048 6.67,51.283C3.413,60.703 0.516,70.099 -1.941,79.424C-1.301,77.775 -0.692,76.12 0,74.479" style="fill:rgb(17,63,91);fill-rule:nonzero;"/>
        </g>
        <g transform="matrix(1,0,0,1,807.947,308.46)">
            <path d="M0,241.561C0,241.741 -0.013,241.916 -0.014,242.095C9.304,163.046 -5.488,67.4 -20.027,-0.534C-40.929,2.43 -63.829,6.244 -87.515,11.125C-43.503,82.028 0,170.159 0,241.561" style="fill:rgb(27,112,155);fill-rule:nonzero;"/>
        </g>
        <g transform="matrix(1,0,0,1,451.646,535.628)">
            <path d="M0,14.393C0,-6.181 3.391,-27.871 9.213,-49.971C1.582,-30.295 -2.316,-10.054 -2.802,9.971C-2.326,28.381 0.975,46.744 7.155,64.364C2.528,48.503 0,31.747 0,14.393" style="fill:rgb(17,63,91);fill-rule:nonzero;"/>
        </g>
        <g transform="matrix(1,0,0,1,807.947,508.05)">
            <path d="M0,41.971C0,-29.431 -43.503,-117.562 -87.515,-188.465C-160.175,-173.487 -240.116,-148.429 -291.748,-106.763C-314.663,-81.449 -333.602,-54.697 -345.147,-27.339C-345.84,-25.698 -346.449,-24.043 -347.089,-22.393C-352.911,-0.293 -356.302,21.397 -356.302,41.971C-356.302,59.325 -353.774,76.081 -349.146,91.942C-341.303,114.3 -328.877,135.46 -311.748,153.95C-244.882,226.128 -132.166,230.436 -59.987,163.571C-42.883,147.724 -27.631,127.244 -14.063,104.068C-7.126,85.504 -2.624,64.658 -0.014,42.505C-0.013,42.326 0,42.151 0,41.971" style="fill:rgb(17,63,91);fill-rule:nonzero;"/>
        </g>
        <g transform="matrix(1,0,0,1,170.028,507.603)">
            <path d="M0,-13.526C7.15,-13.526 13.237,-14.431 18.264,-16.247C23.291,-18.058 27.41,-20.573 30.624,-23.786C33.835,-26.996 36.167,-30.755 37.618,-35.055C39.069,-39.356 39.794,-43.996 39.794,-48.969C39.794,-58.918 36.555,-66.69 30.08,-72.286C23.602,-77.882 13.574,-80.68 0,-80.68L-21.142,-80.68L-21.142,-13.526L0,-13.526ZM111.614,106.483L64.046,106.483C55.235,106.483 48.913,103.166 45.081,96.535L7.461,30.778C5.697,27.979 3.73,25.935 1.554,24.637C-0.622,23.342 -3.732,22.694 -7.773,22.694L-21.142,22.694L-21.142,106.483L-73.685,106.483L-73.685,-120.009L0,-120.009C16.373,-120.009 30.336,-118.325 41.894,-114.957C53.448,-111.589 62.88,-106.898 70.186,-100.89C77.492,-94.877 82.801,-87.778 86.12,-79.592C89.435,-71.405 91.094,-62.493 91.094,-52.855C91.094,-45.496 90.107,-38.552 88.141,-32.024C86.17,-25.496 83.268,-19.457 79.435,-13.915C75.599,-8.369 70.858,-3.422 65.212,0.93C59.562,5.285 53.059,8.86 45.703,11.658C49.122,13.421 52.333,15.621 55.34,18.264C58.345,20.907 61.039,24.041 63.424,27.668L111.614,106.483Z" style="fill:rgb(0,156,211);fill-rule:nonzero;"/>
        </g>
        <g transform="matrix(1,0,0,1,384.707,552.838)">
            <path d="M0,-38.707C0,-42.541 -0.493,-46.271 -1.478,-49.9C-2.463,-53.525 -4.068,-56.764 -6.296,-59.616C-8.526,-62.466 -11.453,-64.769 -15.079,-66.533C-18.708,-68.295 -23.111,-69.176 -28.293,-69.176C-37.414,-69.176 -44.564,-66.557 -49.745,-61.326C-54.929,-56.091 -58.349,-48.551 -60.004,-38.707L0,-38.707ZM-60.626,-10.727C-59.072,2.747 -54.979,12.514 -48.346,18.576C-41.715,24.639 -33.166,27.67 -22.697,27.67C-17.1,27.67 -12.281,26.998 -8.24,25.649C-4.198,24.305 -0.598,22.8 2.565,21.142C5.724,19.485 8.627,17.981 11.27,16.634C13.912,15.288 16.684,14.612 19.586,14.612C23.419,14.612 26.322,16.012 28.292,18.81L42.283,36.064C37.308,41.766 31.945,46.402 26.193,49.979C20.442,53.554 14.534,56.352 8.472,58.372C2.409,60.393 -3.654,61.792 -9.716,62.569C-15.779,63.347 -21.557,63.735 -27.049,63.735C-38.346,63.735 -48.943,61.894 -58.839,58.217C-68.736,54.54 -77.392,49.071 -84.799,41.817C-92.21,34.564 -98.066,25.548 -102.365,14.769C-106.667,3.991 -108.817,-8.551 -108.817,-22.852C-108.817,-33.629 -106.978,-43.836 -103.298,-53.476C-99.621,-63.113 -94.335,-71.559 -87.442,-78.813C-80.551,-86.067 -72.208,-91.818 -62.414,-96.069C-52.621,-100.316 -41.56,-102.442 -29.226,-102.442C-18.553,-102.442 -8.784,-100.782 0.078,-97.469C8.938,-94.15 16.555,-89.331 22.929,-83.01C29.302,-76.688 34.276,-68.942 37.852,-59.771C41.428,-50.601 43.215,-40.209 43.215,-28.603C43.215,-24.974 43.06,-22.02 42.749,-19.742C42.438,-17.461 41.867,-15.646 41.038,-14.302C40.208,-12.953 39.095,-12.02 37.696,-11.504C36.297,-10.983 34.509,-10.727 32.333,-10.727L-60.626,-10.727Z" style="fill:rgb(0,156,211);fill-rule:nonzero;"/>
        </g>
        <g transform="matrix(1,0,0,1,750.105,558.299)">
            <path d="M0,-27.587C0,-30.319 -0.352,-32.979 -1.053,-35.565C-1.756,-38.149 -2.899,-40.456 -4.487,-42.489C-6.076,-44.521 -8.163,-46.162 -10.747,-47.419C-13.334,-48.675 -16.472,-49.303 -20.165,-49.303C-26.665,-49.303 -31.762,-47.437 -35.454,-43.708C-39.148,-39.977 -41.586,-34.603 -42.767,-27.587L0,-27.587ZM-43.21,-7.645C-42.102,1.959 -39.185,8.92 -34.457,13.24C-29.731,17.561 -23.638,19.722 -16.177,19.722C-12.188,19.722 -8.753,19.243 -5.872,18.281C-2.992,17.323 -0.426,16.25 1.828,15.068C4.08,13.889 6.149,12.816 8.032,11.855C9.916,10.897 11.892,10.416 13.96,10.416C16.691,10.416 18.761,11.413 20.164,13.407L30.136,25.704C26.59,29.768 22.769,33.073 18.669,35.621C14.569,38.17 10.359,40.164 6.038,41.603C1.718,43.044 -2.604,44.041 -6.925,44.596C-11.245,45.149 -15.364,45.426 -19.278,45.426C-27.33,45.426 -34.883,44.113 -41.936,41.493C-48.99,38.873 -55.158,34.976 -60.438,29.805C-65.721,24.635 -69.895,18.209 -72.958,10.526C-76.023,2.845 -77.557,-6.094 -77.557,-16.286C-77.557,-23.968 -76.245,-31.242 -73.623,-38.113C-71.002,-44.982 -67.234,-51.001 -62.322,-56.172C-57.41,-61.342 -51.464,-65.441 -44.483,-68.471C-37.504,-71.497 -29.62,-73.013 -20.829,-73.013C-13.223,-73.013 -6.26,-71.83 0.056,-69.468C6.37,-67.103 11.799,-63.668 16.343,-59.163C20.885,-54.657 24.43,-49.137 26.978,-42.6C29.527,-36.064 30.801,-28.657 30.801,-20.386C30.801,-17.799 30.69,-15.693 30.469,-14.07C30.247,-12.443 29.84,-11.151 29.249,-10.192C28.657,-9.232 27.864,-8.566 26.867,-8.198C25.87,-7.828 24.596,-7.645 23.045,-7.645L-43.21,-7.645Z" style="fill:white;fill-rule:nonzero;"/>
        </g>
        <g transform="matrix(1,0,0,1,492.957,486)">
            <path d="M0,116.531L0,1.77L21.248,1.77C25.525,1.77 28.33,3.69 29.658,7.524L31.539,13.723C33.457,11.729 35.449,9.904 37.516,8.244C39.581,6.584 41.812,5.145 44.211,3.928C46.607,2.711 49.191,1.754 51.958,1.051C54.724,0.35 57.767,0 61.087,0C68.021,0 73.759,1.79 78.296,5.367C82.833,8.946 86.282,13.723 88.643,19.699C90.561,16.158 92.903,13.133 95.671,10.623C98.438,8.116 101.426,6.086 104.635,4.537C107.844,2.987 111.236,1.845 114.815,1.106C118.394,0.37 121.953,0 125.496,0C132.061,0 137.89,0.978 142.98,2.932C148.071,4.888 152.331,7.729 155.764,11.453C159.193,15.18 161.794,19.754 163.565,25.177C165.336,30.598 166.221,36.741 166.221,43.603L166.221,116.531L131.914,116.531L131.914,43.603C131.914,31.725 126.824,25.785 116.642,25.785C111.994,25.785 108.138,27.317 105.078,30.378C102.015,33.441 100.485,37.847 100.485,43.603L100.485,116.531L66.179,116.531L66.179,43.603C66.179,37.037 64.886,32.425 62.304,29.769C59.722,27.113 55.923,25.785 50.906,25.785C47.808,25.785 44.875,26.487 42.108,27.887C39.342,29.29 36.742,31.173 34.307,33.531L34.307,116.531L0,116.531Z" style="fill:white;fill-rule:nonzero;"/>
        </g>
        <g transform="matrix(1,0,0,1,960.796,504.256)">
            <path d="M0,-5.752C-3.629,-9.794 -7.567,-12.615 -11.816,-14.224C-16.064,-15.83 -20.521,-16.633 -25.184,-16.633C-29.64,-16.633 -33.733,-15.752 -37.464,-13.99C-41.194,-12.227 -44.436,-9.405 -47.179,-5.519C-49.928,-1.633 -52.078,3.419 -53.632,9.639C-55.187,15.856 -55.964,23.372 -55.964,32.179C-55.964,40.678 -55.342,47.828 -54.099,53.632C-52.855,59.435 -51.119,64.124 -48.889,67.699C-46.663,71.274 -43.992,73.839 -40.884,75.394C-37.774,76.948 -34.304,77.726 -30.469,77.726C-26.948,77.726 -23.761,77.391 -20.909,76.715C-18.06,76.044 -15.443,75.083 -13.06,73.839C-10.676,72.596 -8.422,71.018 -6.296,69.099C-4.173,67.182 -2.075,64.979 0,62.492L0,-5.752ZM48.189,-120.476L48.189,112.236L18.342,112.236C12.332,112.236 8.394,109.542 6.528,104.153L2.798,91.873C-0.417,95.293 -3.784,98.401 -7.306,101.199C-10.831,103.997 -14.64,106.407 -18.733,108.428C-22.828,110.448 -27.23,112.003 -31.945,113.091C-36.663,114.179 -41.767,114.724 -47.257,114.724C-55.653,114.724 -63.426,112.857 -70.576,109.127C-77.726,105.396 -83.895,100.008 -89.073,92.961C-94.257,85.914 -98.324,77.287 -101.278,67.077C-104.231,56.87 -105.708,45.235 -105.708,32.179C-105.708,20.157 -104.052,8.991 -100.733,-1.322C-97.418,-11.633 -92.727,-20.543 -86.664,-28.059C-80.602,-35.571 -73.321,-41.452 -64.824,-45.703C-56.326,-49.95 -46.946,-52.076 -36.687,-52.076C-28.293,-52.076 -21.246,-50.885 -15.547,-48.501C-9.847,-46.115 -4.663,-42.905 0,-38.863L0,-120.476L48.189,-120.476Z" style="fill:rgb(17,63,91);fill-rule:nonzero;"/>
        </g>
        <g transform="matrix(1,0,0,1,1034.41,617.719)">
            <path d="M0,-153.28C-1.181,-153.28 -1.827,-151.904 -1.074,-150.994C3.554,-145.395 4.707,-139.844 4.771,-134.09C4.898,-122.708 5.174,-111.327 5.204,-99.944C5.272,-74.381 5.161,-48.816 5.263,-23.253C5.309,-11.516 13.551,0 24.632,-1.331C37.618,-2.892 42.46,-14.357 40.96,-27.795C40.79,-29.317 40.832,-30.851 41.063,-32.366C41.63,-36.091 40.385,-37.063 37.328,-37.006C31.219,-36.892 29.524,-36.957 23.415,-37.108C20.935,-37.17 19.118,-38.508 18.962,-41.163C18.791,-44.059 20.676,-45.4 23.257,-45.867C24.976,-46.178 26.831,-45.796 28.508,-46.149C31.389,-46.757 29.913,-47.017 32.825,-46.581C39.229,-45.622 41.671,-45.174 41.083,-49.96C40.679,-53.243 40.725,-56.561 41.092,-59.848C41.453,-63.09 40.594,-64.14 37.799,-64.075C32.106,-63.939 30.829,-64.059 25.133,-64.027C21.927,-64.008 18.935,-64.643 19.01,-68.526C19.085,-72.386 22.127,-72.902 25.303,-72.879C30.998,-72.836 32.275,-72.945 37.969,-72.834C40.306,-72.789 41.313,-73.478 41.146,-76.1C40.915,-79.744 40.787,-83.404 41.13,-87.039C41.419,-90.104 40.395,-90.861 37.776,-90.795C32.084,-90.649 30.806,-90.804 25.11,-90.729C21.854,-90.685 18.942,-91.354 19.008,-95.216C19.073,-99.087 22.103,-99.585 25.285,-99.552C30.981,-99.496 32.258,-99.616 37.952,-99.503C40.392,-99.454 41.387,-100.151 41.129,-103.176C40.821,-106.78 41.077,-110.402 41.451,-114.002C41.807,-117.418 40.489,-118.15 37.441,-118.037C31.754,-117.824 30.473,-117.987 24.776,-117.977C21.848,-117.972 19.188,-118.777 19.229,-122.152C19.271,-125.527 21.901,-126.197 24.866,-126.154C30.839,-126.069 32.394,-126.175 38.366,-126.107C40.324,-126.085 41.473,-126.428 41.442,-128.805C41.347,-136.41 43.061,-145.306 48.174,-151.591C48.724,-152.266 48.22,-153.28 47.348,-153.28L0,-153.28Z" style="fill:rgb(0,156,211);fill-rule:nonzero;"/>
        </g>
        <g transform="matrix(1,0,0,1,1069.37,430.896)">
            <path d="M0,3.408C-2.23,4.464 -5.395,2.458 -7.067,-1.074C-8.739,-4.606 -8.286,-8.325 -6.056,-9.381C-3.825,-10.437 -0.662,-8.43 1.011,-4.899C2.683,-1.367 2.23,2.352 0,3.408M-18.921,-14.054C-27.624,-9.934 -31.339,0.462 -27.218,9.165C-23.097,17.868 -12.701,21.583 -3.998,17.462C4.705,13.341 8.42,2.945 4.299,-5.758C0.179,-14.461 -10.218,-18.175 -18.921,-14.054" style="fill:rgb(0,156,211);fill-rule:nonzero;"/>
        </g>
        <g transform="matrix(1,0,0,1,1085.19,391.162)">
            <path d="M0,1.599C-1.046,2.094 -2.53,1.153 -3.314,-0.504C-4.1,-2.161 -3.887,-3.905 -2.841,-4.401C-1.794,-4.896 -0.311,-3.955 0.475,-2.298C1.259,-0.641 1.046,1.103 0,1.599M-8.875,-6.593C-12.958,-4.66 -14.7,0.217 -12.768,4.299C-10.834,8.382 -5.958,10.125 -1.875,8.192C2.208,6.259 3.95,1.382 2.017,-2.701C0.084,-6.783 -4.793,-8.526 -8.875,-6.593" style="fill:rgb(0,156,211);fill-rule:nonzero;"/>
        </g>
        <g transform="matrix(1,0,0,1,1062.93,365.578)">
            <path d="M0,1.264C-0.828,1.656 -2.001,0.911 -2.621,-0.399C-3.241,-1.709 -3.074,-3.088 -2.246,-3.48C-1.419,-3.871 -0.246,-3.127 0.374,-1.817C0.995,-0.507 0.827,0.872 0,1.264M-7.018,-5.213C-10.246,-3.685 -11.624,0.171 -10.096,3.399C-8.567,6.627 -4.711,8.005 -1.483,6.476C1.745,4.948 3.123,1.092 1.594,-2.136C0.065,-5.364 -3.79,-6.741 -7.018,-5.213" style="fill:rgb(0,156,211);fill-rule:nonzero;"/>
        </g>
    </g>
</svg>
